<?xml version="1.0" encoding="UTF-8" standalone="no"?>
<!DOCTYPE svg PUBLIC "-//W3C//DTD SVG 1.1//EN" "http://www.w3.org/Graphics/SVG/1.1/DTD/svg11.dtd">
<svg width="100%" height="100%" viewBox="0 0 504 193" version="1.1" xmlns="http://www.w3.org/2000/svg" xmlns:xlink="http://www.w3.org/1999/xlink" xml:space="preserve" xmlns:serif="http://www.serif.com/" style="fill-rule:evenodd;clip-rule:evenodd;stroke-linejoin:round;stroke-miterlimit:2;">
    <g id="FAU_x5F_Logo_00000087384039772143529630000018440013674716552331_" transform="matrix(1,0,0,1,-48.718,-48.718)">
        <path d="M48.718,66.643L58.462,56.899L58.462,233.849L48.718,233.849L48.718,66.643ZM77.95,58.462L194.875,58.462L194.875,48.718L68.206,48.718L68.206,165.642L175.828,165.642L175.828,155.899L77.95,155.899L77.95,58.462ZM190.499,136.412L97.437,136.412L97.437,97.437L177.024,97.437L186.768,87.693L97.437,87.693L97.437,77.949L194.875,77.949L194.875,68.206L87.693,68.206L87.693,146.155L180.883,146.155L190.499,136.412ZM68.206,233.849L77.95,233.849L77.95,185.13L87.694,185.13L87.694,225.668L97.438,215.925L97.438,185.13L175.829,185.13L175.829,175.387L68.206,175.387L68.206,233.849ZM542.598,48.718L542.598,160.772C542.598,186.846 530.964,209.247 503.818,226.428L503.598,226.141C521.435,211.995 532.854,193.825 532.854,170.352L532.854,48.718L523.11,48.718L523.11,170.19C523.11,205.168 494.754,231.413 459.776,231.413C424.798,231.413 396.442,205.168 396.442,170.19L396.442,56.899L386.698,66.643L386.698,170.352C386.698,210.712 419.416,240.994 459.776,240.994L469.52,240.994C509.263,240.994 552.342,211.644 552.342,160.914L552.342,48.718L542.598,48.718ZM459.776,221.669C489.357,221.669 513.339,199.762 513.366,170.19L513.366,56.899L503.622,66.643L503.622,160.771C503.622,179.605 488.353,192.438 469.519,192.438C450.685,192.438 435.416,179.605 435.416,160.771L435.416,48.718L425.672,48.718L425.672,160.771C425.672,184.987 445.303,202.182 469.519,202.182C479.421,202.182 491.44,197.29 499.604,188.679L499.823,188.966C492.168,203.161 478.019,211.926 459.775,211.926C435.708,211.926 416.172,194.502 415.934,170.515L415.928,170.515L415.928,48.718L406.184,48.718L406.184,170.514L406.189,170.514C406.393,199.922 430.305,221.669 459.776,221.669ZM243.257,175.387L218.617,233.849L228.362,233.848L228.361,233.849L228.362,233.849L240.681,204.618L323.235,204.618L335.543,233.849L345.287,233.849L328.876,194.874L244.787,194.874L248.893,185.13L334.517,185.13L355.031,233.849L364.775,233.849L340.159,175.387L243.257,175.387ZM257.594,48.718L185.984,218.576L192.186,226.996L267.338,48.718L257.594,48.718ZM296.569,48.718L371.627,226.996L377.814,218.576L306.313,48.718L296.569,48.718ZM237.6,165.643L208.782,233.849L199.038,233.849L272.209,60.287L312.467,155.899L322.211,155.899L277.082,48.718L286.826,48.718L336.057,165.642L237.6,165.642L237.6,165.643ZM281.978,106.629L261.214,155.899L302.723,155.899L281.978,106.629ZM241.702,155.899L251.471,155.899L277.109,95.063L272.23,83.476L241.702,155.899Z" style="fill:white;fill-rule:nonzero;"/>
    </g>
</svg>
